<?xml version="1.0" encoding="UTF-8" standalone="no"?>
<!-- Created with Inkscape (http://www.inkscape.org/) -->

<svg
   width="512"
   height="512"
   viewBox="0 0 512 512"
   version="1.1"
   id="svg1"
   xmlns="http://www.w3.org/2000/svg"
   xmlns:svg="http://www.w3.org/2000/svg">
  <defs
     id="defs1">
    <filter
       style="color-interpolation-filters:sRGB"
       id="filter24"
       x="-0.044840216"
       y="-0.043913378"
       width="1.0887629"
       height="1.0878386">
      <feGaussianBlur
         stdDeviation="8.4945092"
         id="feGaussianBlur24" />
    </filter>
    <filter
       style="color-interpolation-filters:sRGB"
       id="filter25"
       x="-0.068085083"
       y="-0.066589211"
       width="1.1352526"
       height="1.1331903">
      <feGaussianBlur
         stdDeviation="13.272671"
         id="feGaussianBlur25" />
    </filter>
    <filter
       style="color-interpolation-filters:sRGB"
       id="filter26"
       x="-0.063243884"
       y="-0.061478315"
       width="1.1264878"
       height="1.1229566">
      <feGaussianBlur
         stdDeviation="11.345599"
         id="feGaussianBlur26" />
    </filter>
  </defs>
  <g
     id="layer1">
    <path
       style="fill:#1900d7;fill-opacity:1;stroke:#4fdaff;stroke-width:10;stroke-linecap:square;stroke-linejoin:bevel;stroke-dasharray:none;stroke-dashoffset:0;stroke-opacity:1;filter:url(#filter26)"
       id="path26"
       d="m 425.97764,38.109351 c 6.28279,29.563466 -49.95383,198.728419 -43.81967,228.323089 2.73181,13.17982 107.9086,24.67837 97.90557,33.68447 -22.46132,20.22279 -197.08078,56.10293 -219.64343,76.2126 -10.04815,8.95573 32.58221,105.79077 19.78118,101.63095 C 251.45718,468.61978 133.07434,335.33496 104.37753,325.84997 91.597566,321.62588 29.051138,406.96237 26.253132,393.79644 19.970343,364.23298 76.206965,195.06802 70.072805,165.47336 67.34099,152.29354 -37.835792,140.79499 -27.832768,131.78888 -5.3714506,111.56609 169.24801,75.685955 191.81066,55.576286 c 10.04815,-8.955731 -32.5822,-105.790771 -19.78117,-101.630952 28.7441,9.340677 147.12694,142.625499 175.82375,152.110496 12.77997,4.22409 75.3264,-81.112405 78.1244,-67.946479 z"
       transform="matrix(0.88308316,0,0,0.88308316,58.35102,63.90699)" />
    <path
       d="m 212.40962,61.667609 -100.72328,2.398173 -1.0908,39.388838 78.61881,0.9271 -105.817368,8.19856 103.223278,12.0124 -77.73541,-3.29319 -3.70784,39.72102 109.28819,11.99086 z m 64.57592,369.615141 -60.15714,-88.64619 -34.82981,19.7921 70.87513,-60.8217 -76.63135,52.33947 28.80839,-28.66512 -42.31273,-62.35107 -110.601125,113.9521 40.557919,91.96589 z m 30.69632,39.07959 116.13183,-272.12723 -67.28213,187.78807 136.80695,134.72334 H 409.05984 L 358.05755,464.09493 45.303638,517.59847 -2.6732683e-5,380.62467 102.92838,228.17655 64.367731,185.53137 76.486239,15.027974 262.42866,30.148758 249.75261,206.24321 193.66336,227.34966 324.43858,356.64294 384.49291,203.17421 Z"
       id="text1"
       style="font-size:701.637px;fill:#000000;fill-opacity:1;stroke:#9900fe;stroke-width:3.654;stroke-linecap:square;stroke-linejoin:bevel;stroke-dasharray:none;stroke-dashoffset:0;stroke-opacity:1"
       transform="scale(1.0378264,0.96355226)"
       aria-label="&amp;" />
    <path
       d="m 212.40962,61.667609 -100.72328,2.398173 -1.0908,39.388838 78.61881,0.9271 -105.817368,8.19856 103.223278,12.0124 -77.73541,-3.29319 -3.70784,39.72102 109.28819,11.99086 z m 64.57592,369.615141 -60.15714,-88.64619 -34.82981,19.7921 70.87513,-60.8217 -76.63135,52.33947 28.80839,-28.66512 -42.31273,-62.35107 -110.601125,113.9521 40.557919,91.96589 z m 30.69632,39.07959 116.13183,-272.12723 -67.28213,187.78807 136.80695,134.72334 H 409.05984 L 358.05755,464.09493 45.303638,517.59847 -2.6732683e-5,380.62467 102.92838,228.17655 64.367731,185.53137 76.486239,15.027974 262.42866,30.148758 249.75261,206.24321 193.66336,227.34966 324.43858,356.64294 384.49291,203.17421 Z"
       id="path24"
       style="font-size:701.637px;fill:none;fill-opacity:1;stroke:#9900fe;stroke-width:3.654;stroke-linecap:square;stroke-linejoin:bevel;stroke-dasharray:none;stroke-dashoffset:0;stroke-opacity:1;filter:url(#filter24)"
       transform="scale(1.0378264,0.96355226)"
       aria-label="&amp;" />
    <path
       d="m 212.40962,61.667609 -100.72328,2.398173 -1.0908,39.388838 78.61881,0.9271 -105.817368,8.19856 103.223278,12.0124 -77.73541,-3.29319 -3.70784,39.72102 109.28819,11.99086 z m 64.57592,369.615141 -60.15714,-88.64619 -34.82981,19.7921 70.87513,-60.8217 -76.63135,52.33947 28.80839,-28.66512 -42.31273,-62.35107 -110.601125,113.9521 40.557919,91.96589 z m 30.69632,39.07959 116.13183,-272.12723 -67.28213,187.78807 136.80695,134.72334 H 409.05984 L 358.05755,464.09493 45.303638,517.59847 -2.6732683e-5,380.62467 102.92838,228.17655 64.367731,185.53137 76.486239,15.027974 262.42866,30.148758 249.75261,206.24321 193.66336,227.34966 324.43858,356.64294 384.49291,203.17421 Z"
       id="path25"
       style="font-size:701.637px;fill:none;fill-opacity:1;stroke:#9900fe;stroke-width:3.654;stroke-linecap:square;stroke-linejoin:bevel;stroke-dasharray:none;stroke-dashoffset:0;stroke-opacity:1;filter:url(#filter25)"
       transform="scale(1.0378264,0.96355226)"
       aria-label="&amp;" />
  </g>
</svg>
